# AST/ASF file generated using VICON BodyLanguage
# -----------------------------------------------
:version 1.10
:name VICON
:units
  mass 1.0
  length 0.45
  angle deg
:documentation
   .ast/.asf automatically generated from VICON data using
   VICON BodyBuilder and BodyLanguage model FoxedUp or BRILLIANT.MOD
:root
   order TX TY TZ RX RY RZ
   axis XYZ
   position 0 0 0  
   orientation 0 0 0 
:bonedata
  begin
     id 1 
     name lhipjoint
     direction 0.621036 -0.695554 0.361275 
     length 2.46325 
     axis 0 0 0  XYZ
  end
  begin
     id 2 
     name lfemur
     direction 0.34202 -0.939693 0  
     length 6.54784  
     axis 0 0 20  XYZ
    dof rx ry rz
    limits (-160.0 20.0)
           (-70.0 70.0)
           (-60.0 70.0)
  end
  begin
     id 3 
     name ltibia
     direction 0.34202 -0.939693 0   
     length 7.84737   
     axis 0 0 20   XYZ
    dof rx
    limits (-10.0 170.0)
  end
  begin
     id 4 
     name lfoot
     direction 0.0790693 -0.217241 0.97291   
     length 2.59747   
     axis -90 7.62852e-016 20   XYZ
    dof rx rz
    limits (-45.0 90.0)
           (-70.0 20.0)
  end
  begin
     id 5 
     name ltoes
     direction 1.53572e-011 -4.21898e-011 1   
     length 1.29919   
     axis -90 7.62852e-016 20   XYZ
    dof rx
    limits (-90.0 20.0)
  end
  begin
     id 6 
     name rhipjoint
     direction -0.602353 -0.708375 0.367935   
     length 2.41867  
     axis 0 0 0  XYZ 
  end
  begin
     id 7 
     name rfemur
     direction -0.34202 -0.939693 0   
     length 6.92065   
     axis 0 0 -20   XYZ
    dof rx ry rz
    limits (-160.0 20.0)
           (-70.0 70.0)
           (-70.0 60.0)
  end
  begin
     id 8 
     name rtibia
     direction -0.34202 -0.939693 0   
     length 7.88883   
     axis 0 0 -20   XYZ
    dof rx
    limits (-10.0 170.0)
 end
 begin
     id 9 
     name rfoot
     direction -0.0768692 -0.211196 0.974416   
     length 2.43714  
     axis -90 -7.62852e-016 -20   XYZ
    dof rx rz
    limits (-45.0 90.0)
           (-20.0 70.0)
  end
  begin
     id 10 
     name rtoes
     direction -1.53575e-011 -4.21933e-011 1   
     length 1.22113   
     axis -90 -7.62852e-016 -20   XYZ
    dof rx
    limits (-90.0 20.0)
  end
  begin
     id 11 
     name lowerback
     direction 0.0197937 0.98943 -0.143655   
     length 2.16931   
     axis 0 0 0   XYZ
    dof rx ry rz
    limits (-20.0 45.0)
           (-30.0 30.0)
           (-30.0 30.0)
  end
  begin
     id 12 
     name upperback
     direction -0.00183968 0.999975 0.00684288   
     length 2.17221   
     axis 0 0 0   XYZ
    dof rx ry rz
    limits (-20.0 45.0)
           (-30.0 30.0)
           (-30.0 30.0)
  end
  begin
     id 13 
     name thorax
     direction -0.00950244 0.997208 0.0740685   
     length 2.22549   
     axis 0 0 0   XYZ
    dof rx ry rz
    limits (-20.0 45.0)
           (-30.0 30.0)
           (-30.0 30.0)
  end
  begin
     id 14 
     name lowerneck
     direction 0.0218238 0.996215 0.0841425   
     length 1.77269   
     axis 0 0 0   XYZ
    dof rx ry rz
    limits (-20.0 45.0)
           (-30.0 30.0)
           (-30.0 30.0)
  end
  begin
     id 15 
     name upperneck
     direction -0.00430652 0.994214 -0.107332   
     length 1.76534   
     axis 0 0 0   XYZ
    dof rx ry rz
    limits (-20.0 45.0)
           (-30.0 30.0)
           (-30.0 30.0)
  end
  begin
     id 16
     name head
     direction -0.00328946 0.998959 -0.0454998  
     length 1.82634  
     axis 0 0 0   XYZ
    dof rx ry rz
    limits (-20.0 45.0)
           (-30.0 30.0)
           (-30.0 30.0)
  end
  begin
     id 17 
     name lclavicle
     direction 0.970962 0.239191 0.00450212  
     length 3.84872  
     axis 0 0 0   XYZ
    dof ry rz
    limits (-20.0 10.0)
           (0.0 20.0)
  end
  begin
     id 18 
     name lhumerus
     direction 1 -4.48966e-011 5.74696e-028   
     length 5.22771   
     axis 180 -30 -90   XYZ
    dof rx ry rz
    limits (-60.0 90.0)
           (-90.0 90.0)
           (-90.0 90.0)
  end
  begin
     id 19
     name lradius
     direction 1 -4.4896e-011 4.25109e-027   
     length 3.45251   
     axis 180 -30 -90   XYZ
    dof rx
    limits (-10.0 170.0)
  end
  begin
     id 20
     name lwrist
     direction 1 -4.48971e-011 1.15382e-027   
     length 1.72626   
     axis -5.52449e-016 90 90   XYZ
    dof ry
    limits (-180.0 0.0)
 end
  begin
     id 21 
     name lhand
     direction 1 -4.49034e-011 2.30765e-027   
     length 0.552119   
     axis -1.47248e-015 90 90   XYZ
    dof rx rz
    limits (-90.0 90.0)
           (-45.0 45.0)
  end
  begin
     id 22 
     name lfingers
     direction 1 -4.48951e-011 4.61529e-027   
     length 0.445133   
     axis -2.94495e-015 90 90   XYZ
    dof rx
    limits (0.0 90.0)
  end
  begin
     id 23
     name lthumb
     direction 0.707107 -6.34991e-011 0.707107   
     length 0.639124   
     axis -90 45 2.85299e-015   XYZ
    dof rx rz
    limits (-45.0 45.0)
           (-45.0 45.0)
  end
  begin
     id 24 
     name rclavicle
     direction -0.97424 0.222511 -0.0366699   
     length 3.73439  
     axis 0 0 0   XYZ 
    dof ry rz
    limits (-10.0 20.0)
           (-20.0 0.0)
  end
  begin
     id 25 
     name rhumerus
     direction -1 -4.48956e-011 -4.97258e-028  
     length 5.2398   
     axis 180 30 90   XYZ
    dof rx ry rz
    limits (-90.0 60.0)
           (-90.0 90.0)
           (-90.0 90.0)
  end
  begin
     id 26 
     name rradius
     direction -1 -4.4897e-011 -1.72611e-027   
     length 3.48042   
     axis 180 30 90   XYZ
    dof rx
    limits (-10.0 170.0)
  end
  begin
     id 27 
     name rwrist
     direction -1 -4.48976e-011 1.15382e-027   
     length 1.74021   
     axis -5.52449e-016 -90 -90   XYZ
    dof ry
    limits (-180.0 0.0)
  end
  begin
     id 28
     name rhand
     direction -1 -4.48963e-011 2.30765e-027   
     length 0.618713   
     axis -1.47248e-015 -90 -90   XYZ
    dof rx rz
    limits (-90.0 90.0)
           (-45.0 45.0)
  end
  begin
     id 29
     name rfingers
     direction -1 -4.4888e-011 4.61529e-027   
     length 0.498823   
     axis -2.94495e-015 -90 -90   XYZ
    dof rx
    limits (0.0 90.0)
  end
  begin
     id 30
     name rthumb
     direction -0.707107 -6.34968e-011 0.707107   
     length 0.716213   
     axis -90 -45 -2.85299e-015   XYZ
    dof rx rz
    limits (-45.0 45.0)
           (-45.0 45.0)
  end
:hierarchy
  begin
    root lhipjoint rhipjoint lowerback
    lhipjoint lfemur
    lfemur ltibia
    ltibia lfoot
    lfoot ltoes
    rhipjoint rfemur
    rfemur rtibia
    rtibia rfoot
    rfoot rtoes
    lowerback upperback
    upperback thorax
    thorax lowerneck lclavicle rclavicle
    lowerneck upperneck
    upperneck head
    lclavicle lhumerus
    lhumerus lradius
    lradius lwrist
    lwrist lhand lthumb
    lhand lfingers
    rclavicle rhumerus
    rhumerus rradius
    rradius rwrist
    rwrist rhand rthumb
    rhand rfingers
  end

#!OML:ASF G:\JayActor3\Patient Classification 1\Patient 1\Session 5\male.ASF
:FULLY-SPECIFIED
:DEGREES
296
root 45.8883 15.0225 -4.77569 -167.58 87.5917 -182.278
lowerback 40.4298 -3.09029 1.58035
upperback 10.917 -1.77166 -1.3588
thorax -7.40803 -0.166792 -1.63787
lowerneck -0.202762 -0.725226 2.64401
upperneck -27.0098 0.52569 1.50151
head -8.34326 0.331409 -0.0558448
rclavicle -4.8901e-014 -2.80286e-014
rhumerus -28.1 -0.625692 -88.4351
rradius 49.9293
rwrist -9.48991
rhand -21.2567 -11.1396
rfingers 7.12502
rthumb 5.1265 -41.0576
lclavicle -4.8901e-014 -2.80286e-014
lhumerus -18.0106 4.56213 82.6345
lradius 42.5453
lwrist 26.9591
lhand -20.142 11.0112
lfingers 7.12502
lthumb 6.20268 40.9004
rfemur -65.8463 -1.07739 11.4005
rtibia 81.3772
rfoot 13.5897 -3.67965
rtoes -5.90321
lfemur -59.1267 8.82596 -22.1479
ltibia 72.7295
lfoot 0.128083 -12.4841
ltoes -20.7021
297
root 45.878 15.0274 -4.78912 -167.925 87.6486 -182.707
lowerback 40.4601 -3.10596 1.57994
upperback 10.9188 -1.79058 -1.36448
thorax -7.41619 -0.175422 -1.63583
lowerneck -0.15488 -0.715018 2.65933
upperneck -27.09 0.538394 1.46508
head -8.37954 0.339383 -0.0720443
rclavicle 7.55382e-015 1.86858e-014
rhumerus -28.1684 -0.629398 -88.4481
rradius 49.9092
rwrist -9.42624
rhand -21.285 -11.1193
rfingers 7.12502
rthumb 5.09917 -41.0379
lclavicle 7.55382e-015 1.86858e-014
lhumerus -17.9858 4.51136 82.6444
lradius 42.5666
lwrist 26.8968
lhand -20.1421 11.0055
lfingers 7.12502
lthumb 6.20264 40.8947
rfemur -65.9327 -1.01422 11.2654
rtibia 81.2597
rfoot 13.7021 -3.67526
rtoes -5.83831
lfemur -59.2001 8.91965 -22.3456
ltibia 72.657
lfoot 0.0116952 -12.3064
ltoes -20.7356
298
root 45.8674 15.0316 -4.80378 -168.616 87.7157 -183.473
lowerback 40.4911 -3.11659 1.56325
upperback 10.9205 -1.80979 -1.37119
thorax -7.42423 -0.18427 -1.62636
lowerneck -0.108659 -0.701346 2.67907
upperneck -27.1654 0.553509 1.41838
head -8.41384 0.34897 -0.0926554
rclavicle -1.19271e-015 6.16232e-015
rhumerus -28.2368 -0.630879 -88.4583
rradius 49.8884
rwrist -9.35244
rhand -21.2987 -11.0996
rfingers 7.12502
rthumb 5.08593 -41.0185
lclavicle -1.19271e-015 6.16232e-015
lhumerus -17.9641 4.47102 82.6493
lradius 42.581
lwrist 26.83
lhand -20.1382 10.9843
lfingers 7.12502
lthumb 6.20641 40.8734
rfemur -66.0183 -0.962758 11.1174
rtibia 81.1495
rfoot 13.8293 -3.67086
rtoes -5.78675
lfemur -59.2612 8.99317 -22.5391
ltibia 72.583
lfoot -0.0952641 -12.1565
ltoes -20.7872
299
root 45.8565 15.0346 -4.81959 -169.353 87.7911 -184.269
lowerback 40.5278 -3.12422 1.53977
upperback 10.9233 -1.82737 -1.3757
thorax -7.43255 -0.192325 -1.61163
lowerneck -0.0644543 -0.6814 2.7015
upperneck -27.2335 0.574459 1.36019
head -8.44516 0.362099 -0.118033
rclavicle -1.55052e-014 -7.7526e-015
rhumerus -28.3035 -0.631779 -88.4651
rradius 49.8699
rwrist -9.27575
rhand -21.3091 -11.0758
rfingers 7.12502
rthumb 5.07588 -40.995
lclavicle -1.55052e-014 -7.7526e-015
lhumerus -17.9442 4.4462 82.6491
lradius 42.5888
lwrist 26.7635
lhand -20.1316 10.9727
lfingers 7.12502
lthumb 6.2128 40.8616
rfemur -66.1007 -0.923447 10.9754
rtibia 81.0488
rfoot 13.9742 -3.66276
rtoes -5.77717
lfemur -59.3079 9.04748 -22.7066
ltibia 72.5084
lfoot -0.188121 -12.0481
ltoes -20.8328
300
root 45.8452 15.037 -4.83664 -170.071 87.8755 -185.035
lowerback 40.5634 -3.12844 1.51274
upperback 10.9267 -1.84208 -1.37801
thorax -7.43944 -0.199162 -1.59388
lowerneck -0.0194262 -0.655664 2.73297
upperneck -27.2947 0.599566 1.2843
head -8.47413 0.377831 -0.151262
rclavicle 1.19271e-015 -1.98785e-015
rhumerus -28.3702 -0.636961 -88.4689
rradius 49.8509
rwrist -9.19231
rhand -21.3134 -11.0463
rfingers 7.12502
rthumb 5.07172 -40.9656
lclavicle 1.19271e-015 -1.98785e-015
lhumerus -17.9253 4.43187 82.644
lradius 42.5889
lwrist 26.7058
lhand -20.1225 10.9756
lfingers 7.12502
lthumb 6.22159 40.8642
rfemur -66.1825 -0.887366 10.8394
rtibia 80.9547
rfoot 14.1314 -3.66216
rtoes -5.81011
lfemur -59.3405 9.08169 -22.8444
ltibia 72.4288
lfoot -0.280895 -11.9868
ltoes -20.8872
301
root 45.8334 15.0387 -4.85508 -170.7 87.9699 -185.704
lowerback 40.5965 -3.13068 1.48811
upperback 10.932 -1.85343 -1.37932
thorax -7.44337 -0.204444 -1.57767
lowerneck 0.0243746 -0.626799 2.76397
upperneck -27.3486 0.627382 1.20388
head -8.50029 0.395241 -0.186147
rclavicle 2.54444e-014 1.80894e-014
rhumerus -28.4348 -0.653758 -88.4702
rradius 49.8344
rwrist -9.1066
rhand -21.3225 -11.0127
rfingers 7.12502
rthumb 5.06295 -40.9322
lclavicle 2.54444e-014 1.80894e-014
lhumerus -17.903 4.42863 82.6342
lradius 42.5808
lwrist 26.6568
lhand -20.1172 10.9921
lfingers 7.12502
lthumb 6.22662 40.8806
rfemur -66.2652 -0.855045 10.7124
rtibia 80.8672
rfoot 14.302 -3.6607
rtoes -5.93568
lfemur -59.3601 9.09984 -22.9542
ltibia 72.344
lfoot -0.38401 -11.9679
ltoes -20.9573
302
root 45.8217 15.0395 -4.87472 -171.22 88.0797 -186.25
lowerback 40.6309 -3.12796 1.46184
upperback 10.9384 -1.85936 -1.38002
thorax -7.44628 -0.207256 -1.56212
lowerneck 0.0692809 -0.596265 2.79236
upperneck -27.3972 0.657267 1.12511
head -8.52471 0.413617 -0.220192
rclavicle -2.5842e-014 -1.61016e-014
rhumerus -28.4989 -0.679656 -88.4704
rradius 49.8175
rwrist -9.02938
rhand -21.3333 -10.9821
rfingers 7.12502
rthumb 5.05258 -40.9019
lclavicle -2.5842e-014 -1.61016e-014
lhumerus -17.8794 4.43865 82.6193
lradius 42.5641
lwrist 26.6148
lhand -20.1174 11.016
lfingers 7.12502
lthumb 6.2265 40.9045
rfemur -66.3472 -0.824542 10.5965
rtibia 80.787
rfoot 14.4859 -3.64925
rtoes -6.15413
lfemur -59.362 9.11452 -23.0422
ltibia 72.2544
lfoot -0.511909 -11.9799
ltoes -21.0361
